<svg width="64" height="64" viewBox="0 0 64 64" fill="none" xmlns="http://www.w3.org/2000/svg">
  <defs>
    <!-- Premium gradient -->
    <linearGradient id="mainGradient" x1="0%" y1="0%" x2="100%" y2="100%">
      <stop offset="0%" style="stop-color:#8b5cf6"/>
      <stop offset="50%" style="stop-color:#7c3aed"/>
      <stop offset="100%" style="stop-color:#3b82f6"/>
    </linearGradient>
    
    <!-- Calendar gradient -->
    <linearGradient id="calendarGradient" x1="0%" y1="0%" x2="0%" y2="100%">
      <stop offset="0%" style="stop-color:#ffffff"/>
      <stop offset="100%" style="stop-color:#f8fafc"/>
    </linearGradient>
    
    <!-- Header gradient -->
    <linearGradient id="headerGradient" x1="0%" y1="0%" x2="0%" y2="100%">
      <stop offset="0%" style="stop-color:#5b21b6"/>
      <stop offset="100%" style="stop-color:#4c1d95"/>
    </linearGradient>
    
    <!-- Professional shadow -->
    <filter id="shadow" x="-50%" y="-50%" width="200%" height="200%">
      <feDropShadow dx="0" dy="2" stdDeviation="4" flood-color="#000000" flood-opacity="0.15"/>
    </filter>
    
    <!-- Inner shadow for depth -->
    <filter id="innerShadow" x="-50%" y="-50%" width="200%" height="200%">
      <feDropShadow dx="0" dy="1" stdDeviation="1" flood-color="#000000" flood-opacity="0.1"/>
    </filter>
  </defs>
  
  <!-- Main background circle -->
  <circle cx="32" cy="32" r="30" fill="url(#mainGradient)" filter="url(#shadow)"/>
  
  <!-- Calendar container -->
  <rect x="14" y="16" width="36" height="28" rx="4" fill="url(#calendarGradient)" stroke="#e2e8f0" stroke-width="0.5" filter="url(#innerShadow)"/>
  
  <!-- Calendar header -->
  <rect x="14" y="16" width="36" height="8" rx="4" fill="url(#headerGradient)"/>
  <rect x="14" y="20" width="36" height="4" fill="url(#headerGradient)"/>
  
  <!-- Calendar binding rings -->
  <rect x="22" y="12" width="2" height="8" rx="1" fill="#64748b"/>
  <rect x="40" y="12" width="2" height="8" rx="1" fill="#64748b"/>
  <circle cx="23" cy="14" r="2" fill="none" stroke="#64748b" stroke-width="1.5"/>
  <circle cx="41" cy="14" r="2" fill="none" stroke="#64748b" stroke-width="1.5"/>
  
  <!-- Calendar grid - clean and organized -->
  <!-- Week 1 -->
  <circle cx="20" cy="30" r="1.5" fill="#e11d48"/>
  <circle cx="26" cy="30" r="1.5" fill="#64748b" opacity="0.3"/>
  <circle cx="32" cy="30" r="1.5" fill="#0ea5e9"/>
  <circle cx="38" cy="30" r="1.5" fill="#64748b" opacity="0.3"/>
  <circle cx="44" cy="30" r="1.5" fill="#64748b" opacity="0.3"/>
  
  <!-- Week 2 -->
  <circle cx="20" cy="36" r="1.5" fill="#64748b" opacity="0.3"/>
  <circle cx="26" cy="36" r="1.5" fill="#10b981"/>
  <circle cx="32" cy="36" r="1.5" fill="#f59e0b"/>
  <circle cx="38" cy="36" r="1.5" fill="#8b5cf6"/>
  <circle cx="44" cy="36" r="1.5" fill="#64748b" opacity="0.3"/>
  
  <!-- People collaboration section -->
  <g transform="translate(0, 46)">
    <!-- Person 1 -->
    <circle cx="20" cy="8" r="4" fill="#ffffff" stroke="#e2e8f0" stroke-width="1"/>
    <circle cx="20" cy="6.5" r="1.5" fill="#0ea5e9"/>
    <path d="M16.5 10.5 Q16.5 9 18 9 L22 9 Q23.5 9 23.5 10.5" stroke="#0ea5e9" stroke-width="1.2" fill="none" stroke-linecap="round"/>
    
    <!-- Person 2 -->
    <circle cx="32" cy="8" r="4" fill="#ffffff" stroke="#e2e8f0" stroke-width="1"/>
    <circle cx="32" cy="6.5" r="1.5" fill="#8b5cf6"/>
    <path d="M28.5 10.5 Q28.5 9 30 9 L34 9 Q35.5 9 35.5 10.5" stroke="#8b5cf6" stroke-width="1.2" fill="none" stroke-linecap="round"/>
    
    <!-- Person 3 -->
    <circle cx="44" cy="8" r="4" fill="#ffffff" stroke="#e2e8f0" stroke-width="1"/>
    <circle cx="44" cy="6.5" r="1.5" fill="#10b981"/>
    <path d="M40.5 10.5 Q40.5 9 42 9 L46 9 Q47.5 9 47.5 10.5" stroke="#10b981" stroke-width="1.2" fill="none" stroke-linecap="round"/>
  </g>
  
  <!-- Connection lines showing collaboration -->
  <g opacity="0.6">
    <path d="M24 54 Q28 52 28 54" stroke="#94a3b8" stroke-width="1" fill="none" stroke-dasharray="2,2"/>
    <path d="M36 54 Q40 52 40 54" stroke="#94a3b8" stroke-width="1" fill="none" stroke-dasharray="2,2"/>
  </g>
</svg>